<svg width="24" height="24" viewBox="0 0 24 24" fill="none" xmlns="http://www.w3.org/2000/svg">
<g id="Frame">
<path id="iconFill" fill-rule="evenodd" clip-rule="evenodd" d="M22.0002 1.33325H2.00016C1.82335 1.33325 1.65378 1.40349 1.52876 1.52851C1.40373 1.65354 1.3335 1.82311 1.3335 1.99992V11.3333C1.3335 11.5101 1.40373 11.6796 1.52876 11.8047C1.65378 11.9297 1.82335 11.9999 2.00016 11.9999H3.3335C3.51031 11.9999 3.67988 11.9297 3.8049 11.8047C3.92992 11.6796 4.00016 11.5101 4.00016 11.3333V3.99992H20.0002V19.9999H12.6668C12.49 19.9999 12.3204 20.0702 12.1954 20.1952C12.0704 20.3202 12.0002 20.4898 12.0002 20.6666V21.9999C12.0002 22.1767 12.0704 22.3463 12.1954 22.4713C12.3204 22.5963 12.49 22.6666 12.6668 22.6666H22.0002C22.177 22.6666 22.3465 22.5963 22.4716 22.4713C22.5966 22.3463 22.6668 22.1767 22.6668 21.9999V1.99992C22.6668 1.82311 22.5966 1.65354 22.4716 1.52851C22.3465 1.40349 22.177 1.33325 22.0002 1.33325Z" fill="white"/>
<path id="iconFill_2" fill-rule="evenodd" clip-rule="evenodd" d="M12.4237 18.5097C12.4724 18.5594 12.5305 18.5989 12.5947 18.6259C12.6589 18.6529 12.7278 18.6668 12.7974 18.6667C12.934 18.6671 13.0655 18.6152 13.1651 18.5217C13.2647 18.4282 13.3249 18.3002 13.3332 18.1639V10.9973C13.3329 10.9097 13.298 10.8258 13.2361 10.7639C13.1741 10.7019 13.0902 10.667 13.0026 10.6667H5.83612C5.69975 10.675 5.57168 10.7351 5.47818 10.8347C5.38467 10.9343 5.3328 11.0659 5.33319 11.2026C5.3332 11.2722 5.34708 11.341 5.37402 11.4052C5.40096 11.4694 5.44042 11.5275 5.4901 11.5763L8.01418 14.1001L1.98579 20.1283C1.92389 20.1902 1.87478 20.2637 1.84128 20.3446C1.80777 20.4255 1.79053 20.5122 1.79053 20.5997C1.79053 20.6873 1.80777 20.774 1.84128 20.8549C1.87478 20.9357 1.92389 21.0092 1.98579 21.0711L2.92868 22.014C2.99059 22.0759 3.06408 22.125 3.14497 22.1585C3.22585 22.192 3.31254 22.2093 3.40009 22.2093C3.48764 22.2093 3.57433 22.192 3.65522 22.1585C3.7361 22.125 3.80959 22.0759 3.8715 22.014L9.89959 15.9858L12.4237 18.5097Z" fill="white"/>
</g>
</svg>
